<svg width="189" height="36" viewBox="0 0 189 36" fill="none" xmlns="http://www.w3.org/2000/svg">
<path d="M22 14.5V13.0413C22 12.3887 21.6816 11.7771 21.1469 11.4028L13.1469 5.80285C12.4583 5.3208 11.5417 5.3208 10.8531 5.80285L2.85308 11.4028C2.31842 11.7771 2 12.3887 2 13.0413V27.3146C2 28.9015 3.75947 29.8563 5.08998 28.9915L10.91 25.2085C11.5728 24.7777 12.4272 24.7777 13.09 25.2085L18.9606 29.0244C20.2694 29.8751 22 28.9359 22 27.375V27.375" stroke="#696CFF" stroke-width="4" stroke-linecap="round"/>
<circle cx="22" cy="21" r="3" fill="#696CFF"/>
<path d="M44.16 17.408C45.104 17.584 45.88 18.056 46.488 18.824C47.096 19.592 47.4 20.472 47.4 21.464C47.4 22.36 47.176 23.152 46.728 23.84C46.296 24.512 45.664 25.04 44.832 25.424C44 25.808 43.016 26 41.88 26H34.656V9.248H41.568C42.704 9.248 43.68 9.432 44.496 9.8C45.328 10.168 45.952 10.68 46.368 11.336C46.8 11.992 47.016 12.736 47.016 13.568C47.016 14.544 46.752 15.36 46.224 16.016C45.712 16.672 45.024 17.136 44.16 17.408ZM38.016 16.16H41.088C41.888 16.16 42.504 15.984 42.936 15.632C43.368 15.264 43.584 14.744 43.584 14.072C43.584 13.4 43.368 12.88 42.936 12.512C42.504 12.144 41.888 11.96 41.088 11.96H38.016V16.16ZM41.4 23.264C42.216 23.264 42.848 23.072 43.296 22.688C43.76 22.304 43.992 21.76 43.992 21.056C43.992 20.336 43.752 19.776 43.272 19.376C42.792 18.96 42.144 18.752 41.328 18.752H38.016V23.264H41.4ZM62.6299 12.704V26H59.2459V24.32C58.8139 24.896 58.2459 25.352 57.5419 25.688C56.8539 26.008 56.1019 26.168 55.2859 26.168C54.2459 26.168 53.3259 25.952 52.5259 25.52C51.7259 25.072 51.0939 24.424 50.6299 23.576C50.1819 22.712 49.9579 21.688 49.9579 20.504V12.704H53.3179V20.024C53.3179 21.08 53.5819 21.896 54.1099 22.472C54.6379 23.032 55.3579 23.312 56.2699 23.312C57.1979 23.312 57.9259 23.032 58.4539 22.472C58.9819 21.896 59.2459 21.08 59.2459 20.024V12.704H62.6299ZM65.0811 19.304C65.0811 17.96 65.3451 16.768 65.8731 15.728C66.4171 14.688 67.1531 13.888 68.0811 13.328C69.0091 12.768 70.0411 12.488 71.1771 12.488C72.0411 12.488 72.8651 12.68 73.6491 13.064C74.4331 13.432 75.0571 13.928 75.5211 14.552V8.24H78.9291V26H75.5211V24.032C75.1051 24.688 74.5211 25.216 73.7691 25.616C73.0171 26.016 72.1451 26.216 71.1531 26.216C70.0331 26.216 69.0091 25.928 68.0811 25.352C67.1531 24.776 66.4171 23.968 65.8731 22.928C65.3451 21.872 65.0811 20.664 65.0811 19.304ZM75.5451 19.352C75.5451 18.536 75.3851 17.84 75.0651 17.264C74.7451 16.672 74.3131 16.224 73.7691 15.92C73.2251 15.6 72.6411 15.44 72.0171 15.44C71.3931 15.44 70.8171 15.592 70.2891 15.896C69.7611 16.2 69.3291 16.648 68.9931 17.24C68.6731 17.816 68.5131 18.504 68.5131 19.304C68.5131 20.104 68.6731 20.808 68.9931 21.416C69.3291 22.008 69.7611 22.464 70.2891 22.784C70.8331 23.104 71.4091 23.264 72.0171 23.264C72.6411 23.264 73.2251 23.112 73.7691 22.808C74.3131 22.488 74.7451 22.04 75.0651 21.464C75.3851 20.872 75.5451 20.168 75.5451 19.352ZM81.3467 19.304C81.3467 17.96 81.6107 16.768 82.1387 15.728C82.6827 14.688 83.4107 13.888 84.3227 13.328C85.2507 12.768 86.2827 12.488 87.4187 12.488C88.4107 12.488 89.2747 12.688 90.0107 13.088C90.7627 13.488 91.3627 13.992 91.8107 14.6V12.704H95.1947V26H91.8107V24.056C91.3787 24.68 90.7787 25.2 90.0107 25.616C89.2587 26.016 88.3867 26.216 87.3947 26.216C86.2747 26.216 85.2507 25.928 84.3227 25.352C83.4107 24.776 82.6827 23.968 82.1387 22.928C81.6107 21.872 81.3467 20.664 81.3467 19.304ZM91.8107 19.352C91.8107 18.536 91.6507 17.84 91.3307 17.264C91.0107 16.672 90.5787 16.224 90.0347 15.92C89.4907 15.6 88.9067 15.44 88.2827 15.44C87.6587 15.44 87.0827 15.592 86.5547 15.896C86.0267 16.2 85.5947 16.648 85.2587 17.24C84.9387 17.816 84.7787 18.504 84.7787 19.304C84.7787 20.104 84.9387 20.808 85.2587 21.416C85.5947 22.008 86.0267 22.464 86.5547 22.784C87.0987 23.104 87.6747 23.264 88.2827 23.264C88.9067 23.264 89.4907 23.112 90.0347 22.808C90.5787 22.488 91.0107 22.04 91.3307 21.464C91.6507 20.872 91.8107 20.168 91.8107 19.352ZM111.196 12.704L102.964 32.288H99.3883L102.268 25.664L96.9403 12.704H100.708L104.14 21.992L107.62 12.704H111.196ZM112.144 19.304C112.144 17.96 112.408 16.768 112.936 15.728C113.48 14.688 114.208 13.888 115.12 13.328C116.048 12.768 117.08 12.488 118.216 12.488C119.208 12.488 120.072 12.688 120.808 13.088C121.56 13.488 122.16 13.992 122.608 14.6V12.704H125.992V26H122.608V24.056C122.176 24.68 121.576 25.2 120.808 25.616C120.056 26.016 119.184 26.216 118.192 26.216C117.072 26.216 116.048 25.928 115.12 25.352C114.208 24.776 113.48 23.968 112.936 22.928C112.408 21.872 112.144 20.664 112.144 19.304ZM122.608 19.352C122.608 18.536 122.448 17.84 122.128 17.264C121.808 16.672 121.376 16.224 120.832 15.92C120.288 15.6 119.704 15.44 119.08 15.44C118.456 15.44 117.88 15.592 117.352 15.896C116.824 16.2 116.392 16.648 116.056 17.24C115.736 17.816 115.576 18.504 115.576 19.304C115.576 20.104 115.736 20.808 116.056 21.416C116.392 22.008 116.824 22.464 117.352 22.784C117.896 23.104 118.472 23.264 119.08 23.264C119.704 23.264 120.288 23.112 120.832 22.808C121.376 22.488 121.808 22.04 122.128 21.464C122.448 20.872 122.608 20.168 122.608 19.352Z" fill="#696CFF"/>
<path d="M138.777 17.408C139.721 17.584 140.497 18.056 141.105 18.824C141.713 19.592 142.017 20.472 142.017 21.464C142.017 22.36 141.793 23.152 141.345 23.84C140.913 24.512 140.281 25.04 139.449 25.424C138.617 25.808 137.633 26 136.497 26H129.273V9.248H136.185C137.321 9.248 138.297 9.432 139.113 9.8C139.945 10.168 140.569 10.68 140.985 11.336C141.417 11.992 141.633 12.736 141.633 13.568C141.633 14.544 141.369 15.36 140.841 16.016C140.329 16.672 139.641 17.136 138.777 17.408ZM132.633 16.16H135.705C136.505 16.16 137.121 15.984 137.553 15.632C137.985 15.264 138.201 14.744 138.201 14.072C138.201 13.4 137.985 12.88 137.553 12.512C137.121 12.144 136.505 11.96 135.705 11.96H132.633V16.16ZM136.017 23.264C136.833 23.264 137.465 23.072 137.913 22.688C138.377 22.304 138.609 21.76 138.609 21.056C138.609 20.336 138.369 19.776 137.889 19.376C137.409 18.96 136.761 18.752 135.945 18.752H132.633V23.264H136.017ZM143.831 19.304C143.831 17.96 144.095 16.768 144.623 15.728C145.167 14.688 145.895 13.888 146.807 13.328C147.735 12.768 148.767 12.488 149.903 12.488C150.895 12.488 151.759 12.688 152.495 13.088C153.247 13.488 153.847 13.992 154.295 14.6V12.704H157.679V26H154.295V24.056C153.863 24.68 153.263 25.2 152.495 25.616C151.743 26.016 150.871 26.216 149.879 26.216C148.759 26.216 147.735 25.928 146.807 25.352C145.895 24.776 145.167 23.968 144.623 22.928C144.095 21.872 143.831 20.664 143.831 19.304ZM154.295 19.352C154.295 18.536 154.135 17.84 153.815 17.264C153.495 16.672 153.063 16.224 152.519 15.92C151.975 15.6 151.391 15.44 150.767 15.44C150.143 15.44 149.567 15.592 149.039 15.896C148.511 16.2 148.079 16.648 147.743 17.24C147.423 17.816 147.263 18.504 147.263 19.304C147.263 20.104 147.423 20.808 147.743 21.416C148.079 22.008 148.511 22.464 149.039 22.784C149.583 23.104 150.159 23.264 150.767 23.264C151.391 23.264 151.975 23.112 152.519 22.808C153.063 22.488 153.495 22.04 153.815 21.464C154.135 20.872 154.295 20.168 154.295 19.352ZM166.049 26.216C164.961 26.216 163.985 26.024 163.121 25.64C162.257 25.24 161.569 24.704 161.057 24.032C160.561 23.36 160.289 22.616 160.241 21.8H163.625C163.689 22.312 163.937 22.736 164.369 23.072C164.817 23.408 165.369 23.576 166.025 23.576C166.665 23.576 167.161 23.448 167.513 23.192C167.881 22.936 168.065 22.608 168.065 22.208C168.065 21.776 167.841 21.456 167.393 21.248C166.961 21.024 166.265 20.784 165.305 20.528C164.313 20.288 163.497 20.04 162.857 19.784C162.233 19.528 161.689 19.136 161.225 18.608C160.777 18.08 160.553 17.368 160.553 16.472C160.553 15.736 160.761 15.064 161.177 14.456C161.609 13.848 162.217 13.368 163.001 13.016C163.801 12.664 164.737 12.488 165.809 12.488C167.393 12.488 168.657 12.888 169.601 13.688C170.545 14.472 171.065 15.536 171.161 16.88H167.945C167.897 16.352 167.673 15.936 167.273 15.632C166.889 15.312 166.369 15.152 165.713 15.152C165.105 15.152 164.633 15.264 164.297 15.488C163.977 15.712 163.817 16.024 163.817 16.424C163.817 16.872 164.041 17.216 164.489 17.456C164.937 17.68 165.633 17.912 166.577 18.152C167.537 18.392 168.329 18.64 168.953 18.896C169.577 19.152 170.113 19.552 170.561 20.096C171.025 20.624 171.265 21.328 171.281 22.208C171.281 22.976 171.065 23.664 170.633 24.272C170.217 24.88 169.609 25.36 168.809 25.712C168.025 26.048 167.105 26.216 166.049 26.216ZM173.175 19.304C173.175 17.96 173.439 16.768 173.967 15.728C174.511 14.688 175.239 13.888 176.151 13.328C177.079 12.768 178.111 12.488 179.247 12.488C180.239 12.488 181.103 12.688 181.839 13.088C182.591 13.488 183.191 13.992 183.639 14.6V12.704H187.023V26H183.639V24.056C183.207 24.68 182.607 25.2 181.839 25.616C181.087 26.016 180.215 26.216 179.223 26.216C178.103 26.216 177.079 25.928 176.151 25.352C175.239 24.776 174.511 23.968 173.967 22.928C173.439 21.872 173.175 20.664 173.175 19.304ZM183.639 19.352C183.639 18.536 183.479 17.84 183.159 17.264C182.839 16.672 182.407 16.224 181.863 15.92C181.319 15.6 180.735 15.44 180.111 15.44C179.487 15.44 178.911 15.592 178.383 15.896C177.855 16.2 177.423 16.648 177.087 17.24C176.767 17.816 176.607 18.504 176.607 19.304C176.607 20.104 176.767 20.808 177.087 21.416C177.423 22.008 177.855 22.464 178.383 22.784C178.927 23.104 179.503 23.264 180.111 23.264C180.735 23.264 181.319 23.112 181.863 22.808C182.407 22.488 182.839 22.04 183.159 21.464C183.479 20.872 183.639 20.168 183.639 19.352Z" fill="white"/>
</svg>
